<svg xmlns="http://www.w3.org/2000/svg" xmlns:xlink="http://www.w3.org/1999/xlink" version="1.1" x="0px" y="0px" viewBox="0 0 100 125" enable-background="new 0 0 100 100" xml:space="preserve"><g><path d="M12,75.6c-4.3,0-7.8,3.5-7.8,7.8s3.5,7.8,7.8,7.8s7.8-3.5,7.8-7.8S16.3,75.6,12,75.6z M12,88.2c-2.6,0-4.8-2.1-4.8-4.8   s2.1-4.8,4.8-4.8s4.8,2.1,4.8,4.8S14.7,88.2,12,88.2z"/><path d="M50.3,40.3c-9.9,0-18,8.1-18,18s8.1,18,18,18s18-8.1,18-18S60.2,40.3,50.3,40.3z M50.3,73.3c-8.3,0-15-6.7-15-15   s6.7-15,15-15s15,6.7,15,15S58.5,73.3,50.3,73.3z"/><path d="M50.3,45.5c-7.1,0-12.8,5.7-12.8,12.8c0,0.8,0.7,1.5,1.5,1.5s1.5-0.7,1.5-1.5c0-5.4,4.4-9.8,9.8-9.8s9.8,4.4,9.8,9.8   s-4.4,9.8-9.8,9.8c-0.8,0-1.5,0.7-1.5,1.5s0.7,1.5,1.5,1.5c7.1,0,12.8-5.7,12.8-12.8S57.3,45.5,50.3,45.5z"/><path d="M88,75.6c-4.3,0-7.8,3.5-7.8,7.8s3.5,7.8,7.8,7.8s7.8-3.5,7.8-7.8S92.2,75.6,88,75.6z M88,88.2c-2.6,0-4.8-2.1-4.8-4.8   s2.1-4.8,4.8-4.8s4.8,2.1,4.8,4.8S90.6,88.2,88,88.2z"/><path d="M50.2,24.4c4.3,0,7.8-3.5,7.8-7.8s-3.5-7.8-7.8-7.8s-7.8,3.5-7.8,7.8S45.9,24.4,50.2,24.4z M50.2,11.8   c2.6,0,4.8,2.1,4.8,4.8s-2.1,4.8-4.8,4.8s-4.8-2.1-4.8-4.8S47.5,11.8,50.2,11.8z"/><path d="M30.8,68.9l-9.9,6.6c-0.7,0.5-0.9,1.4-0.4,2.1c0.3,0.4,0.8,0.7,1.2,0.7c0.3,0,0.6-0.1,0.8-0.3l9.9-6.6   c0.7-0.5,0.9-1.4,0.4-2.1C32.4,68.7,31.5,68.5,30.8,68.9z"/><path d="M79.2,74.9l-10.2-6.1c-0.7-0.4-1.6-0.2-2.1,0.5c-0.4,0.7-0.2,1.6,0.5,2.1l10.2,6.1c0.2,0.1,0.5,0.2,0.8,0.2   c0.5,0,1-0.3,1.3-0.7C80.1,76.2,79.9,75.3,79.2,74.9z"/><path d="M48.7,28.2v9c0,0.8,0.7,1.5,1.5,1.5s1.5-0.7,1.5-1.5v-9c0-0.8-0.7-1.5-1.5-1.5S48.7,27.4,48.7,28.2z"/></g><text x="0" y="115" fill="#000000" font-size="5px" font-weight="bold" font-family="'Helvetica Neue', Helvetica, Arial-Unicode, Arial, Sans-serif">Created by Andrea Verzola</text><text x="0" y="120" fill="#000000" font-size="5px" font-weight="bold" font-family="'Helvetica Neue', Helvetica, Arial-Unicode, Arial, Sans-serif">from the Noun Project</text></svg>