<svg xmlns="http://www.w3.org/2000/svg" xmlns:xlink="http://www.w3.org/1999/xlink" version="1.1" x="0px" y="0px" viewBox="0 0 100 125" enable-background="new 0 0 100 100" xml:space="preserve"><g><path d="M83.1,25.7c-1.2-1.2-2.8-1.9-4.5-1.9l-2.8,0c-0.4-3.3-2-6.2-4.9-8.6c-11.3-9.5-21.1-7.1-26.5-1.7   c-5.2,5.2-5.7,12.3-5.2,14.9c0.2,0.8,1,1.3,1.8,1.1c0.8-0.2,1.3-1,1.1-1.8c-0.4-1.7,0-7.7,4.3-12.1C51,11.3,59.3,9.5,69,17.6   c2.2,1.8,3.4,3.9,3.8,6.3l-17,0.3c-3.1,0.1-7.3,1.8-9.6,4.1l-30,30c-2.5,2.5-2.5,6.7,0,9.2l25.2,25.2c1.2,1.2,2.9,1.9,4.6,1.9   c1.7,0,3.4-0.7,4.6-1.9l30-30c2.2-2.2,4-6.4,4-9.6L85,30.3C85,28.6,84.3,27,83.1,25.7z M81.7,53.1c0,2.3-1.5,5.8-3.2,7.5l-30,30   c-1.3,1.3-3.6,1.3-4.9,0L18.5,65.3c-1.4-1.4-1.4-3.6,0-5l30-30c1.7-1.7,5.2-3.1,7.5-3.2L72.9,27c-0.4,3.4-2,6.7-3.7,9.2   c-0.8-0.4-1.7-0.6-2.7-0.6c-3.6,0-6.5,2.9-6.5,6.5s2.9,6.5,6.5,6.5s6.5-2.9,6.5-6.5c0-1.5-0.5-2.9-1.4-4.1c2-3,4-7,4.3-11.2l2.7,0   c0.9,0,1.8,0.4,2.4,1c0.6,0.6,1,1.5,1,2.4L81.7,53.1z M70,42.1c0,1.9-1.6,3.5-3.5,3.5S63,44.1,63,42.1s1.6-3.5,3.5-3.5   c0.3,0,0.6,0.1,0.9,0.1c-1.1,1.4-1.9,2.2-2,2.3c-0.6,0.6-0.5,1.5,0.1,2.1c0.3,0.3,0.7,0.4,1,0.4c0.4,0,0.8-0.2,1.1-0.5   c0.3-0.3,1.1-1.2,2.1-2.5C69.9,41.1,70,41.6,70,42.1z"/><path d="M56.7,74.4L47,84.1c-0.3,0.3-0.8,0.3-1.2,0l-9.8-9.8c-0.6-0.6-1.5-0.6-2.1,0c-0.6,0.6-0.6,1.5,0,2.1l9.8,9.8   c0.7,0.7,1.7,1.1,2.7,1.1s2-0.4,2.7-1.1l9.7-9.7c0.6-0.6,0.6-1.5,0-2.1C58.3,73.8,57.3,73.8,56.7,74.4z"/></g><text x="0" y="115" fill="#000000" font-size="5px" font-weight="bold" font-family="'Helvetica Neue', Helvetica, Arial-Unicode, Arial, Sans-serif">Created by Andrea Verzola</text><text x="0" y="120" fill="#000000" font-size="5px" font-weight="bold" font-family="'Helvetica Neue', Helvetica, Arial-Unicode, Arial, Sans-serif">from the Noun Project</text></svg>